<svg xmlns="http://www.w3.org/2000/svg" width="31" height="31" fill="none" viewBox="0 0 31 31">
  <path fill="#EA4335" d="M15.896 5.84a8.37 8.37 0 0 1 5.84 2.25l4.262-4.168A14.51 14.51 0 0 0 15.896.002 15.092 15.092 0 0 0 2.403 8.324l4.884 3.792a9.129 9.129 0 0 1 8.61-6.276Z"/>
  <path fill="#4285F4" d="M30.396 15.44a12.938 12.938 0 0 0-.32-3.088h-14.18v5.606h8.325a7.38 7.38 0 0 1-3.09 4.9l4.767 3.692A14.764 14.764 0 0 0 30.4 15.44h-.004Z"/>
  <path fill="#FBBC05" d="M7.305 18.091a9.31 9.31 0 0 1-.504-2.987 9.771 9.771 0 0 1 .486-2.987L2.404 8.325a15.071 15.071 0 0 0 0 13.56l4.9-3.794Z"/>
  <path fill="#34A853" d="M15.896 30.208a14.395 14.395 0 0 0 10.002-3.659l-4.767-3.691a8.939 8.939 0 0 1-5.235 1.51 9.092 9.092 0 0 1-8.591-6.276L2.42 21.885a15.067 15.067 0 0 0 13.475 8.323Z"/>
</svg>
